<svg id="Layer_1" data-name="Layer 1" xmlns="http://www.w3.org/2000/svg" xmlns:xlink="http://www.w3.org/1999/xlink" viewBox="0 0 360 360"><defs><style>.cls-1{fill:url(#linear-gradient);}.cls-2{fill:#fff;}</style><linearGradient id="linear-gradient" y1="360" x2="360" gradientUnits="userSpaceOnUse"><stop offset="0.05" stop-color="#30a5d7"/><stop offset="1" stop-color="#4361ad"/></linearGradient></defs><title>EngageIconSquare</title><rect class="cls-1" width="360" height="360"/><path class="cls-2" d="M73,112.06c-14.24,29.32-3.69,68.82,28,81.62,18.54,7.5,41.1,5,56.12-8.74,16.63-15.19,18.34-39.63,9.31-59.27-8.95-19.44-27.61-30.26-48.76-30.25-15,0-31,4.22-43.17,13.2-15,11-26.81,25.71-33.26,43.3-6.15,16.76-6.68,35.8-2.82,53.13C43.29,227,57,246.8,77.48,256.75c24.91,12.1,53.85,9.23,77.77-3.81,8.48-4.62.92-17.57-7.57-12.95-17.45,9.51-38.11,12.63-57.13,6.06-15.6-5.38-27.81-17.68-34-32.87-11.6-28.55-5.15-62.25,16.71-84,8.46-8.4,17.8-14.35,30-17.14,13.18-3,28.93-2.73,39.67,6.55,11.89,10.27,17.57,28.72,11.94,43.62-5.79,15.34-22.48,22.36-38,20.29-16.63-2.23-28.95-13.63-33.28-29.64C80.64,142,80.69,130.53,86,119.63c4.2-8.65-8.73-16.26-13-7.57Z"/><path class="cls-2" d="M271.75,119.63c10.18,21,2.62,50.79-20.19,60.07-14,5.69-31.54,4-42.28-7.28-11.78-12.39-10.35-31.51-1.76-45.22,15-24,51-19.51,70-4.22a77.79,77.79,0,0,1,27.07,79.31c-4.15,17.41-14.37,32.48-30.48,40.8-20.19,10.42-44.61,7.49-64.05-3.1-8.48-4.62-16.05,8.33-7.57,12.95,21.19,11.55,47.16,15.63,70.18,7.05a73.09,73.09,0,0,0,42.49-41.64c14.53-35.66,4.77-78-24.06-103.45A74.43,74.43,0,0,0,253,96.56c-19.88-3.15-40.91.77-54.12,17.16s-17.54,39.88-7.66,58.93c9.61,18.52,30.9,27.25,51,24.72a54.25,54.25,0,0,0,46.16-39.48c4.49-15.56,3.48-31.18-3.63-45.83-4.22-8.68-17.16-1.09-13,7.57Z"/></svg>